# 3ds Max Wavefront OBJ Exporter v0.97b - (c)2007 guruware
# File Created: 23.05.2017 18:34:25

mtllib railingSeparation.mtl

#
# object Box002
#

v  -57.6833 0.0000 57.6833
v  -57.6833 0.0000 -57.6833
v  57.6833 0.0000 -57.6833
v  57.6833 0.0000 57.6833
v  -45.0000 110.0000 45.0000
v  45.0000 110.0000 45.0000
v  45.0000 110.0000 -45.0000
v  -45.0000 110.0000 -45.0000
v  45.0000 90.7500 45.0000
v  -45.0000 90.7500 45.0000
v  45.0000 90.7500 -45.0000
v  -45.0000 90.7500 -45.0000
# 12 vertices

vn 0.0000 -1.0000 -0.0000
vn 0.0000 1.0000 -0.0000
vn 0.0000 0.1384 0.9904
vn 0.9904 0.1384 -0.0000
vn 0.0000 0.1384 -0.9904
vn 0.0000 0.0723 -0.9974
vn -0.9904 0.1384 -0.0000
vn -0.9974 0.0723 -0.0000
vn 0.0000 0.0000 1.0000
vn 1.0000 0.0000 -0.0000
vn 0.0000 0.0000 -1.0000
vn -1.0000 0.0000 -0.0000
# 12 vertex normals

vt 0.9640 0.1533 0.0000
vt 0.9640 0.4854 0.0000
vt 0.6243 0.4854 0.0000
vt 0.6243 0.1533 0.0000
vt 0.9842 0.9569 0.0000
vt 0.5735 0.9569 0.0000
vt 0.5735 0.5463 0.0000
vt 0.9842 0.5463 0.0000
vt 0.5970 0.0466 0.0000
vt 0.5351 0.4939 0.0000
vt 0.0957 0.4939 0.0000
vt 0.0338 0.0466 0.0000
vt 0.5351 0.5879 0.0000
vt 0.0957 0.5879 0.0000
# 14 texture coords

g Box002
usemtl Material__5
s off
f 1/1/1 2/2/1 3/3/1 4/4/1 
f 5/5/2 6/6/2 7/7/2 8/8/2 
f 4/9/3 9/10/3 10/11/3 1/12/3 
f 3/9/4 11/10/4 9/11/4 4/12/4 
f 2/9/5 12/10/6 11/11/6 3/12/5 
f 1/9/7 10/10/8 12/11/8 2/12/7 
f 6/13/9 5/14/9 10/11/9 9/10/9 
f 7/13/10 6/14/10 9/11/10 11/10/10 
f 8/13/11 7/14/11 11/11/6 12/10/6 
f 5/13/12 8/14/12 12/11/8 10/10/8 
# 10 polygons

